# xmcd
#
# Track frame offsets: 
#        150
#        14317
#        25116
#        39726
#        56303
#        72997
#        88315
#        104361
#        114541
#        123750
#        137193
#
# Disc length: 2010 seconds
#
# Revision: 0
# Processed by: cddbd v1.5.2PL0 Copyright (c) Steve Scherf et al.
# Submitted via: ExactAudioCopy v0.95a4
#
DISCID=9207d80b
DTITLE=Trout Steak Revival - Brighter Every Day
DYEAR=2015
DGENRE=Bluegrass
TTITLE0=Union Pacific
TTITLE1=Get A Fire Going
TTITLE2=Oklahoma
TTITLE3=Brighter Every Day
TTITLE4=Ours For The Taking
TTITLE5=Wind On The Mountain
TTITLE6=Days Of Gray
TTITLE7=Sierra Nevada
TTITLE8=Pie
TTITLE9=Go On
TTITLE10=Colorado River
EXTD=
EXTT0=
EXTT1=
EXTT2=
EXTT3=
EXTT4=
EXTT5=
EXTT6=
EXTT7=
EXTT8=
EXTT9=
EXTT10=
PLAYORDER=
